<svg width="81" height="65" viewBox="0 0 81 65" fill="none" xmlns="http://www.w3.org/2000/svg">
<path d="M1.69955 28.748C-0.560493 30.8232 -0.560493 34.1934 1.69955 36.2686L30.6281 62.8311C32.8882 64.9062 36.5585 64.9062 38.8185 62.8311C41.0786 60.7559 41.0786 57.3857 38.8185 55.3105L19.7437 37.8125L75.2143 37.8125C78.4145 37.8125 81 35.4385 81 32.5C81 29.5615 78.4145 27.1875 75.2143 27.1875L19.7618 27.1875L38.8004 9.68946C41.0605 7.61426 41.0605 4.24414 38.8004 2.16894C36.5404 0.0937424 32.8701 0.0937424 30.61 2.16894L1.68147 28.7314L1.69955 28.748Z" fill="white"/>
</svg>
