<svg width="246" height="178" viewBox="0 0 246 178" fill="none" xmlns="http://www.w3.org/2000/svg">
<path d="M18.0871 3.5369C19.2923 1.09629 21.9438 -0.304052 24.6355 0.0560366L122.983 12.2991L221.33 0.0560366C224.022 -0.264042 226.673 1.1363 227.879 3.5369L244.632 36.9051C248.247 44.0669 244.39 52.7491 236.677 54.9496L171.032 73.6342C165.447 75.2346 159.461 72.874 156.488 67.9128L122.983 12.2991L89.4773 67.9128C86.5044 72.874 80.5184 75.2346 74.9341 73.6342L9.329 54.9496C1.57531 52.7491 -2.24128 44.0669 1.37444 36.9051L18.0871 3.5369ZM123.425 37.9054L145.481 74.4744C151.467 84.3969 163.399 89.118 174.607 85.9172L225.83 71.3536V138.17C225.83 146.972 219.804 154.654 211.206 156.815L129.21 177.22C125.112 178.26 120.813 178.26 116.756 177.22L34.7595 156.815C26.1622 154.614 20.136 146.932 20.136 138.13V71.3136L71.3987 85.9172C82.5673 89.118 94.5393 84.3969 100.525 74.4744L122.541 37.9054H123.425Z" fill="white"/>
</svg>
