<svg width="46" height="41" viewBox="0 0 46 41" fill="none" xmlns="http://www.w3.org/2000/svg">
<path d="M45.984 20.46C45.984 21.9014 44.7861 23.0305 43.4285 23.0305H40.8729L40.9288 35.859C40.9288 36.0752 40.9128 36.2914 40.8889 36.5076V37.7969C40.8889 39.5666 39.4594 41 37.6944 41H36.4167C36.3288 41 36.241 41 36.1531 40.992C36.0413 41 35.9295 41 35.8177 41H33.2222H31.3056C29.5406 41 28.1111 39.5666 28.1111 37.7969V35.875V30.75C28.1111 29.3326 26.9691 28.1875 25.5556 28.1875H20.4444C19.0309 28.1875 17.8889 29.3326 17.8889 30.75V35.875V37.7969C17.8889 39.5666 16.4594 41 14.6944 41H12.7778H10.2302C10.1104 41 9.99063 40.992 9.87083 40.984C9.775 40.992 9.67917 41 9.58333 41H8.30556C6.54062 41 5.11111 39.5666 5.11111 37.7969V28.8281C5.11111 28.7561 5.11111 28.676 5.1191 28.6039V23.0305H2.55556C1.11806 23.0305 0 21.9094 0 20.46C0 19.7393 0.239583 19.0986 0.798611 18.5381L21.275 0.640625C21.834 0.0800781 22.4729 0 23.0319 0C23.591 0 24.2299 0.160156 24.709 0.560547L45.1056 18.5381C45.7444 19.0986 46.0639 19.7393 45.984 20.46Z" fill="white"/>
</svg>
