<svg width="220" height="193" viewBox="0 0 220 193" fill="none" xmlns="http://www.w3.org/2000/svg">
<path d="M53.1516 154.753C58.6932 150.705 65.8672 149.671 72.3108 151.997C83.6947 156.131 96.4532 158.5 110.028 158.5C163.596 158.5 199.38 123.828 199.38 89.5871C199.38 55.3459 163.596 20.674 110.028 20.674C56.4594 20.674 20.6755 55.3459 20.6755 89.5871C20.6755 103.37 26.0022 116.636 36.0114 128.006C39.7058 132.184 41.51 137.697 41.0805 143.296C40.4791 151.092 38.6319 158.242 36.2262 164.573C43.5291 161.171 49.5861 157.38 53.1516 154.796V154.753ZM9.16277 172.24C9.93601 171.077 10.6663 169.914 11.3536 168.751C15.6494 161.601 19.7304 152.212 20.5466 141.66C7.65924 126.973 0.0556971 109.012 0.0556971 89.5871C0.0556971 40.0989 49.2854 0 110.028 0C170.77 0 220 40.0989 220 89.5871C220 139.075 170.77 179.174 110.028 179.174C94.0905 179.174 78.9693 176.418 65.3087 171.465C60.1967 175.212 51.8629 180.337 41.9826 184.644C35.4959 187.487 28.1072 190.071 20.4607 191.579C20.117 191.665 19.7734 191.708 19.4297 191.794C17.5396 192.139 15.6924 192.44 13.7593 192.612C13.6733 192.612 13.5445 192.655 13.4586 192.655C11.2677 192.871 9.07685 193 6.886 193C4.09374 193 1.60218 191.32 0.528234 188.736C-0.545713 186.152 0.055697 183.223 1.9888 181.242C3.75007 179.433 5.33952 177.495 6.84304 175.427C7.57332 174.436 8.26065 173.446 8.90502 172.455C8.94798 172.369 8.99093 172.326 9.03389 172.24H9.16277Z" fill="white"/>
</svg>
