<svg width="80" height="80" viewBox="0 0 80 80" fill="none" xmlns="http://www.w3.org/2000/svg">
<path d="M40 80C50.6087 80 60.7828 75.7857 68.2843 68.2843C75.7857 60.7828 80 50.6087 80 40C80 29.3913 75.7857 19.2172 68.2843 11.7157C60.7828 4.21427 50.6087 0 40 0C29.3913 0 19.2172 4.21427 11.7157 11.7157C4.21427 19.2172 0 29.3913 0 40C0 50.6087 4.21427 60.7828 11.7157 68.2843C19.2172 75.7857 29.3913 80 40 80ZM15.125 49.0781C14.5313 46.9375 16.2812 45 18.5 45H61.5C63.7188 45 65.4844 46.9375 64.875 49.0781C61.9062 59.6875 51.8906 67.5 40 67.5C28.1094 67.5 18.0938 59.6875 15.125 49.0781ZM34 33.25L33.9688 33.2188C33.9375 33.1875 33.9062 33.1406 33.8594 33.0781C33.7656 32.9531 33.6094 32.7656 33.4219 32.5469C33.0312 32.1094 32.4844 31.5156 31.8281 30.9375C30.4531 29.7188 28.8906 28.75 27.5 28.75C26.1094 28.75 24.5469 29.7188 23.1719 30.9375C22.5156 31.5156 21.9688 32.1094 21.5781 32.5469C21.3906 32.7656 21.2344 32.9531 21.1406 33.0781C21.0938 33.1406 21.0469 33.1875 21.0312 33.2188L21 33.25C20.6719 33.6875 20.1094 33.8594 19.6094 33.6875C19.1094 33.5156 18.75 33.0469 18.75 32.5C18.75 29.7031 19.7969 26.9375 21.3438 24.875C22.875 22.8438 25.0781 21.25 27.5 21.25C29.9219 21.25 32.125 22.8438 33.6562 24.875C35.2031 26.9375 36.25 29.7031 36.25 32.5C36.25 33.0312 35.9062 33.5156 35.3906 33.6875C34.875 33.8594 34.3125 33.6875 34 33.25ZM59 33.25L58.9688 33.2188C58.9375 33.1875 58.9063 33.1406 58.8594 33.0781C58.7656 32.9531 58.6094 32.7656 58.4219 32.5469C58.0312 32.1094 57.4844 31.5156 56.8281 30.9375C55.4531 29.7188 53.8906 28.75 52.5 28.75C51.1094 28.75 49.5469 29.7188 48.1719 30.9375C47.5156 31.5156 46.9688 32.1094 46.5781 32.5469C46.3906 32.7656 46.2344 32.9531 46.1406 33.0781C46.0937 33.1406 46.0469 33.1875 46.0312 33.2188L46 33.25C45.6719 33.6875 45.1094 33.8594 44.6094 33.6875C44.1094 33.5156 43.75 33.0469 43.75 32.5C43.75 29.7031 44.7969 26.9375 46.3438 24.875C47.875 22.8438 50.0781 21.25 52.5 21.25C54.9219 21.25 57.125 22.8438 58.6562 24.875C60.2031 26.9375 61.25 29.7031 61.25 32.5C61.25 33.0312 60.9062 33.5156 60.3906 33.6875C59.875 33.8594 59.3125 33.6875 59 33.25Z" fill="#EBE32A"/>
</svg>
