<svg width="80" height="80" viewBox="0 0 80 80" fill="none" xmlns="http://www.w3.org/2000/svg">
<path d="M40 80C50.6087 80 60.7828 75.7857 68.2843 68.2843C75.7857 60.7828 80 50.6087 80 40C80 29.3913 75.7857 19.2172 68.2843 11.7157C60.7828 4.21427 50.6087 0 40 0C29.3913 0 19.2172 4.21427 11.7157 11.7157C4.21427 19.2172 0 29.3913 0 40C0 50.6087 4.21427 60.7828 11.7157 68.2843C19.2172 75.7857 29.3913 80 40 80ZM27.5625 27.5C28.8886 27.5 30.1604 28.0268 31.098 28.9645C32.0357 29.9021 32.5625 31.1739 32.5625 32.5C32.5625 33.8261 32.0357 35.0979 31.098 36.0355C30.1604 36.9732 28.8886 37.5 27.5625 37.5C26.2364 37.5 24.9646 36.9732 24.027 36.0355C23.0893 35.0979 22.5625 33.8261 22.5625 32.5C22.5625 31.1739 23.0893 29.9021 24.027 28.9645C24.9646 28.0268 26.2364 27.5 27.5625 27.5ZM47.5625 32.5C47.5625 31.1739 48.0893 29.9021 49.027 28.9645C49.9646 28.0268 51.2364 27.5 52.5625 27.5C53.8886 27.5 55.1604 28.0268 56.098 28.9645C57.0357 29.9021 57.5625 31.1739 57.5625 32.5C57.5625 33.8261 57.0357 35.0979 56.098 36.0355C55.1604 36.9732 53.8886 37.5 52.5625 37.5C51.2364 37.5 49.9646 36.9732 49.027 36.0355C48.0893 35.0979 47.5625 33.8261 47.5625 32.5ZM25 52.5H55C56.375 52.5 57.5 53.625 57.5 55C57.5 56.375 56.375 57.5 55 57.5H25C23.625 57.5 22.5 56.375 22.5 55C22.5 53.625 23.625 52.5 25 52.5Z" fill="#EBE32A"/>
</svg>
