<svg width="66" height="58" viewBox="0 0 66 58" fill="none" xmlns="http://www.w3.org/2000/svg">
<path d="M40.3992 57.759C43.7508 57.0887 45.9293 53.8273 45.259 50.4758L44.9625 49.0063C44.2793 45.5645 43.016 42.2902 41.25 39.3125H59.8125C63.2285 39.3125 66 36.541 66 33.125C66 30.7402 64.6465 28.6648 62.6613 27.6336C64.0664 26.4992 64.9688 24.759 64.9688 22.8125C64.9688 19.7961 62.8031 17.2824 59.9543 16.741C60.5215 15.8 60.8438 14.7043 60.8438 13.5312C60.8438 10.7855 59.052 8.45234 56.577 7.65313C56.6672 7.22773 56.7188 6.77656 56.7188 6.3125C56.7188 2.89648 53.9473 0.125 50.5312 0.125H37.9629C35.5137 0.125 33.1289 0.846875 31.0922 2.20039L26.1293 5.51328C22.6875 7.80781 20.625 11.675 20.625 15.8129V20.75V26.9375V30.1473C20.625 33.9113 22.3395 37.4562 25.2656 39.8152L26.2195 40.5758C29.6355 43.3086 31.9688 47.15 32.8195 51.4297L33.116 52.8992C33.7863 56.2508 37.0477 58.4293 40.3992 57.759ZM4.125 45.5H12.375C14.6566 45.5 16.5 43.6566 16.5 41.375V12.5C16.5 10.2184 14.6566 8.375 12.375 8.375H4.125C1.84336 8.375 0 10.2184 0 12.5V41.375C0 43.6566 1.84336 45.5 4.125 45.5Z" fill="#EB2A2A"/>
</svg>
