<svg width="235" height="192" viewBox="0 0 235 192" fill="none" xmlns="http://www.w3.org/2000/svg">
<path d="M130.556 11.9838C130.556 8.27094 128.72 4.78312 125.537 2.53292C122.355 0.282715 118.234 -0.542359 114.318 0.357722L40.921 17.2342C32.2309 19.2219 26.1111 26.4226 26.1111 34.6733V167.998H13.0556C5.8342 167.998 0 173.361 0 179.999C0 186.637 5.8342 192 13.0556 192H39.1667H117.5H130.556V179.999V11.9838ZM104.444 95.9913C104.444 102.629 100.079 107.992 94.6528 107.992C89.2266 107.992 84.8611 102.629 84.8611 95.9913C84.8611 89.3532 89.2266 83.9903 94.6528 83.9903C100.079 83.9903 104.444 89.3532 104.444 95.9913ZM143.611 47.987H182.778V179.999C182.778 186.637 188.612 192 195.833 192H221.944C229.166 192 235 186.637 235 179.999C235 173.361 229.166 167.998 221.944 167.998H208.889V47.987C208.889 34.7483 197.18 23.9849 182.778 23.9849H143.611V47.987Z" fill="white"/>
</svg>
