<svg width="66" height="58" viewBox="0 0 66 58" fill="none" xmlns="http://www.w3.org/2000/svg">
<path d="M40.3992 0.241016C43.7508 0.911327 45.9293 4.17266 45.259 7.52422L44.9625 8.99375C44.2793 12.4355 43.016 15.7098 41.25 18.6875H59.8125C63.2285 18.6875 66 21.459 66 24.875C66 27.2598 64.6465 29.3352 62.6613 30.3664C64.0664 31.5008 64.9688 33.241 64.9688 35.1875C64.9688 38.2039 62.8031 40.7176 59.9543 41.259C60.5215 42.2 60.8438 43.2957 60.8438 44.4688C60.8438 47.2145 59.052 49.5477 56.577 50.3469C56.6672 50.7723 56.7188 51.2234 56.7188 51.6875C56.7188 55.1035 53.9473 57.875 50.5312 57.875H37.9629C35.5137 57.875 33.1289 57.1531 31.0922 55.7996L26.1293 52.4867C22.6875 50.1922 20.625 46.325 20.625 42.1871V37.25V31.0625V27.8527C20.625 24.0887 22.3395 20.5438 25.2656 18.1848L26.2195 17.4242C29.6355 14.6914 31.9688 10.85 32.8195 6.57031L33.116 5.10078C33.7863 1.74922 37.0477 -0.429298 40.3992 0.241016ZM4.125 12.5H12.375C14.6566 12.5 16.5 14.3434 16.5 16.625V45.5C16.5 47.7816 14.6566 49.625 12.375 49.625H4.125C1.84336 49.625 0 47.7816 0 45.5V16.625C0 14.3434 1.84336 12.5 4.125 12.5Z" fill="#2AEB54"/>
</svg>
